<mxfile host="app.diagrams.net" agent="Mozilla/5.0 (Windows NT 10.0; Win64; x64) AppleWebKit/537.36 (KHTML, like Gecko) Chrome/134.0.0.0 Safari/537.36 Edg/134.0.0.0" version="26.1.3">
  <diagram name="Page-1" id="3mt6ZtAHsn90npYY3fpc">
    <mxGraphModel dx="5256" dy="1098" grid="1" gridSize="10" guides="1" tooltips="1" connect="1" arrows="1" fold="1" page="1" pageScale="1" pageWidth="3300" pageHeight="4681" math="0" shadow="0">
      <root>
        <mxCell id="0" />
        <mxCell id="1" parent="0" />
        <mxCell id="9RJf3UfJ7IM10yMbAAB7-1" value="supplier_address" style="rounded=0;whiteSpace=wrap;html=1;" vertex="1" parent="1">
          <mxGeometry x="740" y="280" width="120" height="60" as="geometry" />
        </mxCell>
        <mxCell id="9RJf3UfJ7IM10yMbAAB7-2" value="contact_information" style="rounded=0;whiteSpace=wrap;html=1;" vertex="1" parent="1">
          <mxGeometry x="600" y="280" width="140" height="60" as="geometry" />
        </mxCell>
        <mxCell id="9RJf3UfJ7IM10yMbAAB7-3" value="supplier_email" style="rounded=0;whiteSpace=wrap;html=1;" vertex="1" parent="1">
          <mxGeometry x="480" y="280" width="120" height="60" as="geometry" />
        </mxCell>
        <mxCell id="9RJf3UfJ7IM10yMbAAB7-4" value="supplier_id" style="rounded=0;whiteSpace=wrap;html=1;" vertex="1" parent="1">
          <mxGeometry x="240" y="280" width="120" height="60" as="geometry" />
        </mxCell>
        <mxCell id="9RJf3UfJ7IM10yMbAAB7-5" value="supplier_name" style="rounded=0;whiteSpace=wrap;html=1;" vertex="1" parent="1">
          <mxGeometry x="360" y="280" width="120" height="60" as="geometry" />
        </mxCell>
        <mxCell id="9RJf3UfJ7IM10yMbAAB7-6" value="&lt;b&gt;SUPPLIER&lt;/b&gt;" style="text;html=1;align=center;verticalAlign=middle;whiteSpace=wrap;rounded=0;fontSize=14;" vertex="1" parent="1">
          <mxGeometry x="240" y="240" width="80" height="30" as="geometry" />
        </mxCell>
        <mxCell id="9RJf3UfJ7IM10yMbAAB7-7" value="price" style="rounded=0;whiteSpace=wrap;html=1;" vertex="1" parent="1">
          <mxGeometry x="740" y="420" width="120" height="60" as="geometry" />
        </mxCell>
        <mxCell id="9RJf3UfJ7IM10yMbAAB7-8" value="product_category" style="rounded=0;whiteSpace=wrap;html=1;" vertex="1" parent="1">
          <mxGeometry x="600" y="420" width="140" height="60" as="geometry" />
        </mxCell>
        <mxCell id="9RJf3UfJ7IM10yMbAAB7-9" value="product_name" style="rounded=0;whiteSpace=wrap;html=1;" vertex="1" parent="1">
          <mxGeometry x="480" y="420" width="120" height="60" as="geometry" />
        </mxCell>
        <mxCell id="9RJf3UfJ7IM10yMbAAB7-10" value="product_id" style="rounded=0;whiteSpace=wrap;html=1;" vertex="1" parent="1">
          <mxGeometry x="240" y="420" width="120" height="60" as="geometry" />
        </mxCell>
        <mxCell id="9RJf3UfJ7IM10yMbAAB7-11" value="supplier_id" style="rounded=0;whiteSpace=wrap;html=1;" vertex="1" parent="1">
          <mxGeometry x="360" y="420" width="120" height="60" as="geometry" />
        </mxCell>
        <mxCell id="9RJf3UfJ7IM10yMbAAB7-12" value="&lt;b&gt;PRODUCTS&lt;/b&gt;" style="text;html=1;align=center;verticalAlign=middle;whiteSpace=wrap;rounded=0;fontSize=14;" vertex="1" parent="1">
          <mxGeometry x="240" y="380" width="80" height="30" as="geometry" />
        </mxCell>
        <mxCell id="9RJf3UfJ7IM10yMbAAB7-13" value="available_stock" style="rounded=0;whiteSpace=wrap;html=1;" vertex="1" parent="1">
          <mxGeometry x="860" y="420" width="120" height="60" as="geometry" />
        </mxCell>
        <mxCell id="9RJf3UfJ7IM10yMbAAB7-14" value="" style="endArrow=classic;html=1;rounded=0;exitX=0.5;exitY=0;exitDx=0;exitDy=0;entryX=0.5;entryY=1;entryDx=0;entryDy=0;edgeStyle=orthogonalEdgeStyle;" edge="1" parent="1" source="9RJf3UfJ7IM10yMbAAB7-11" target="9RJf3UfJ7IM10yMbAAB7-4">
          <mxGeometry width="50" height="50" relative="1" as="geometry">
            <mxPoint x="540" y="390" as="sourcePoint" />
            <mxPoint x="590" y="340" as="targetPoint" />
            <Array as="points">
              <mxPoint x="420" y="360" />
              <mxPoint x="300" y="360" />
            </Array>
          </mxGeometry>
        </mxCell>
        <mxCell id="9RJf3UfJ7IM10yMbAAB7-16" value="FK" style="text;html=1;align=center;verticalAlign=middle;whiteSpace=wrap;rounded=0;" vertex="1" parent="1">
          <mxGeometry x="420" y="370" width="60" height="30" as="geometry" />
        </mxCell>
        <mxCell id="9RJf3UfJ7IM10yMbAAB7-17" value="product_image" style="rounded=0;whiteSpace=wrap;html=1;" vertex="1" parent="1">
          <mxGeometry x="980" y="420" width="120" height="60" as="geometry" />
        </mxCell>
        <mxCell id="9RJf3UfJ7IM10yMbAAB7-18" value="phone" style="rounded=0;whiteSpace=wrap;html=1;" vertex="1" parent="1">
          <mxGeometry x="740" y="550" width="120" height="60" as="geometry" />
        </mxCell>
        <mxCell id="9RJf3UfJ7IM10yMbAAB7-19" value="customer_password" style="rounded=0;whiteSpace=wrap;html=1;" vertex="1" parent="1">
          <mxGeometry x="600" y="550" width="140" height="60" as="geometry" />
        </mxCell>
        <mxCell id="9RJf3UfJ7IM10yMbAAB7-20" value="customer_email" style="rounded=0;whiteSpace=wrap;html=1;" vertex="1" parent="1">
          <mxGeometry x="480" y="550" width="120" height="60" as="geometry" />
        </mxCell>
        <mxCell id="9RJf3UfJ7IM10yMbAAB7-21" value="customer_id" style="rounded=0;whiteSpace=wrap;html=1;" vertex="1" parent="1">
          <mxGeometry x="240" y="550" width="120" height="60" as="geometry" />
        </mxCell>
        <mxCell id="9RJf3UfJ7IM10yMbAAB7-22" value="full_name" style="rounded=0;whiteSpace=wrap;html=1;" vertex="1" parent="1">
          <mxGeometry x="360" y="550" width="120" height="60" as="geometry" />
        </mxCell>
        <mxCell id="9RJf3UfJ7IM10yMbAAB7-23" value="&lt;b&gt;CUSTOMER&lt;/b&gt;" style="text;html=1;align=center;verticalAlign=middle;whiteSpace=wrap;rounded=0;fontSize=14;" vertex="1" parent="1">
          <mxGeometry x="240" y="510" width="80" height="30" as="geometry" />
        </mxCell>
        <mxCell id="9RJf3UfJ7IM10yMbAAB7-24" value="customer_address" style="rounded=0;whiteSpace=wrap;html=1;" vertex="1" parent="1">
          <mxGeometry x="860" y="550" width="120" height="60" as="geometry" />
        </mxCell>
        <mxCell id="9RJf3UfJ7IM10yMbAAB7-26" value="status" style="rounded=0;whiteSpace=wrap;html=1;" vertex="1" parent="1">
          <mxGeometry x="740" y="700" width="120" height="60" as="geometry" />
        </mxCell>
        <mxCell id="9RJf3UfJ7IM10yMbAAB7-27" value="total_amount" style="rounded=0;whiteSpace=wrap;html=1;" vertex="1" parent="1">
          <mxGeometry x="600" y="700" width="140" height="60" as="geometry" />
        </mxCell>
        <mxCell id="9RJf3UfJ7IM10yMbAAB7-28" value="order_date" style="rounded=0;whiteSpace=wrap;html=1;" vertex="1" parent="1">
          <mxGeometry x="480" y="700" width="120" height="60" as="geometry" />
        </mxCell>
        <mxCell id="9RJf3UfJ7IM10yMbAAB7-29" value="order_id" style="rounded=0;whiteSpace=wrap;html=1;" vertex="1" parent="1">
          <mxGeometry x="240" y="700" width="120" height="60" as="geometry" />
        </mxCell>
        <mxCell id="9RJf3UfJ7IM10yMbAAB7-30" value="customer_id" style="rounded=0;whiteSpace=wrap;html=1;" vertex="1" parent="1">
          <mxGeometry x="360" y="700" width="120" height="60" as="geometry" />
        </mxCell>
        <mxCell id="9RJf3UfJ7IM10yMbAAB7-31" value="&lt;b&gt;ORDER&lt;/b&gt;" style="text;html=1;align=center;verticalAlign=middle;whiteSpace=wrap;rounded=0;fontSize=14;" vertex="1" parent="1">
          <mxGeometry x="230" y="660" width="80" height="30" as="geometry" />
        </mxCell>
        <mxCell id="9RJf3UfJ7IM10yMbAAB7-33" value="" style="endArrow=classic;html=1;rounded=0;exitX=0.5;exitY=0;exitDx=0;exitDy=0;entryX=0.5;entryY=1;entryDx=0;entryDy=0;edgeStyle=orthogonalEdgeStyle;" edge="1" parent="1" source="9RJf3UfJ7IM10yMbAAB7-30">
          <mxGeometry width="50" height="50" relative="1" as="geometry">
            <mxPoint x="420" y="690" as="sourcePoint" />
            <mxPoint x="300" y="610" as="targetPoint" />
            <Array as="points">
              <mxPoint x="420" y="650" />
              <mxPoint x="300" y="650" />
            </Array>
          </mxGeometry>
        </mxCell>
        <mxCell id="9RJf3UfJ7IM10yMbAAB7-34" value="FK" style="text;html=1;align=center;verticalAlign=middle;whiteSpace=wrap;rounded=0;" vertex="1" parent="1">
          <mxGeometry x="420" y="660" width="60" height="30" as="geometry" />
        </mxCell>
        <mxCell id="9RJf3UfJ7IM10yMbAAB7-35" value="subtotal" style="rounded=0;whiteSpace=wrap;html=1;" vertex="1" parent="1">
          <mxGeometry x="740" y="840" width="120" height="60" as="geometry" />
        </mxCell>
        <mxCell id="9RJf3UfJ7IM10yMbAAB7-36" value="quantity" style="rounded=0;whiteSpace=wrap;html=1;" vertex="1" parent="1">
          <mxGeometry x="600" y="840" width="140" height="60" as="geometry" />
        </mxCell>
        <mxCell id="9RJf3UfJ7IM10yMbAAB7-37" value="product_id" style="rounded=0;whiteSpace=wrap;html=1;" vertex="1" parent="1">
          <mxGeometry x="480" y="840" width="120" height="60" as="geometry" />
        </mxCell>
        <mxCell id="9RJf3UfJ7IM10yMbAAB7-38" value="order_item_id" style="rounded=0;whiteSpace=wrap;html=1;" vertex="1" parent="1">
          <mxGeometry x="240" y="840" width="120" height="60" as="geometry" />
        </mxCell>
        <mxCell id="9RJf3UfJ7IM10yMbAAB7-39" value="order_id" style="rounded=0;whiteSpace=wrap;html=1;" vertex="1" parent="1">
          <mxGeometry x="360" y="840" width="120" height="60" as="geometry" />
        </mxCell>
        <mxCell id="9RJf3UfJ7IM10yMbAAB7-40" value="&lt;b&gt;ORDER ITEM&lt;/b&gt;" style="text;html=1;align=center;verticalAlign=middle;whiteSpace=wrap;rounded=0;fontSize=14;" vertex="1" parent="1">
          <mxGeometry x="230" y="800" width="110" height="30" as="geometry" />
        </mxCell>
        <mxCell id="9RJf3UfJ7IM10yMbAAB7-41" value="" style="endArrow=classic;html=1;rounded=0;exitX=0.5;exitY=0;exitDx=0;exitDy=0;entryX=0.5;entryY=1;entryDx=0;entryDy=0;edgeStyle=orthogonalEdgeStyle;" edge="1" parent="1" source="9RJf3UfJ7IM10yMbAAB7-39">
          <mxGeometry width="50" height="50" relative="1" as="geometry">
            <mxPoint x="420" y="850" as="sourcePoint" />
            <mxPoint x="300" y="760" as="targetPoint" />
            <Array as="points">
              <mxPoint x="420" y="780" />
              <mxPoint x="300" y="780" />
            </Array>
          </mxGeometry>
        </mxCell>
        <mxCell id="9RJf3UfJ7IM10yMbAAB7-42" value="" style="endArrow=classic;html=1;rounded=0;exitX=0.5;exitY=0;exitDx=0;exitDy=0;entryX=0.5;entryY=1;entryDx=0;entryDy=0;edgeStyle=orthogonalEdgeStyle;" edge="1" parent="1" target="9RJf3UfJ7IM10yMbAAB7-10">
          <mxGeometry width="50" height="50" relative="1" as="geometry">
            <mxPoint x="540" y="840" as="sourcePoint" />
            <mxPoint x="420" y="760" as="targetPoint" />
            <Array as="points">
              <mxPoint x="540" y="820" />
              <mxPoint x="1010" y="820" />
              <mxPoint x="1010" y="500" />
              <mxPoint x="300" y="500" />
            </Array>
          </mxGeometry>
        </mxCell>
        <mxCell id="9RJf3UfJ7IM10yMbAAB7-43" value="FK" style="text;html=1;align=center;verticalAlign=middle;whiteSpace=wrap;rounded=0;" vertex="1" parent="1">
          <mxGeometry x="540" y="790" width="60" height="30" as="geometry" />
        </mxCell>
        <mxCell id="9RJf3UfJ7IM10yMbAAB7-44" value="FK" style="text;html=1;align=center;verticalAlign=middle;whiteSpace=wrap;rounded=0;" vertex="1" parent="1">
          <mxGeometry x="420" y="790" width="60" height="30" as="geometry" />
        </mxCell>
        <mxCell id="9RJf3UfJ7IM10yMbAAB7-52" value="payment_method" style="rounded=0;whiteSpace=wrap;html=1;" vertex="1" parent="1">
          <mxGeometry x="-190" y="280" width="120" height="60" as="geometry" />
        </mxCell>
        <mxCell id="9RJf3UfJ7IM10yMbAAB7-53" value="payment_date" style="rounded=0;whiteSpace=wrap;html=1;" vertex="1" parent="1">
          <mxGeometry x="-330" y="280" width="140" height="60" as="geometry" />
        </mxCell>
        <mxCell id="9RJf3UfJ7IM10yMbAAB7-54" value="customer_id" style="rounded=0;whiteSpace=wrap;html=1;" vertex="1" parent="1">
          <mxGeometry x="-450" y="280" width="120" height="60" as="geometry" />
        </mxCell>
        <mxCell id="9RJf3UfJ7IM10yMbAAB7-55" value="payment_id" style="rounded=0;whiteSpace=wrap;html=1;" vertex="1" parent="1">
          <mxGeometry x="-690" y="280" width="120" height="60" as="geometry" />
        </mxCell>
        <mxCell id="9RJf3UfJ7IM10yMbAAB7-56" value="order_id" style="rounded=0;whiteSpace=wrap;html=1;" vertex="1" parent="1">
          <mxGeometry x="-570" y="280" width="120" height="60" as="geometry" />
        </mxCell>
        <mxCell id="9RJf3UfJ7IM10yMbAAB7-57" value="&lt;b&gt;PAYMENT&lt;/b&gt;" style="text;html=1;align=center;verticalAlign=middle;whiteSpace=wrap;rounded=0;fontSize=14;" vertex="1" parent="1">
          <mxGeometry x="-700" y="240" width="110" height="30" as="geometry" />
        </mxCell>
        <mxCell id="9RJf3UfJ7IM10yMbAAB7-58" value="FK" style="text;html=1;align=center;verticalAlign=middle;whiteSpace=wrap;rounded=0;" vertex="1" parent="1">
          <mxGeometry x="-560" y="340" width="60" height="30" as="geometry" />
        </mxCell>
        <mxCell id="9RJf3UfJ7IM10yMbAAB7-59" value="FK" style="text;html=1;align=center;verticalAlign=middle;whiteSpace=wrap;rounded=0;" vertex="1" parent="1">
          <mxGeometry x="-450" y="340" width="60" height="30" as="geometry" />
        </mxCell>
        <mxCell id="9RJf3UfJ7IM10yMbAAB7-60" value="payment_amount" style="rounded=0;whiteSpace=wrap;html=1;" vertex="1" parent="1">
          <mxGeometry x="-70" y="280" width="120" height="60" as="geometry" />
        </mxCell>
        <mxCell id="9RJf3UfJ7IM10yMbAAB7-61" value="payment_status" style="rounded=0;whiteSpace=wrap;html=1;" vertex="1" parent="1">
          <mxGeometry x="50" y="280" width="120" height="60" as="geometry" />
        </mxCell>
        <mxCell id="9RJf3UfJ7IM10yMbAAB7-62" value="" style="endArrow=classic;html=1;rounded=0;exitX=0.5;exitY=1;exitDx=0;exitDy=0;entryX=0;entryY=0.5;entryDx=0;entryDy=0;edgeStyle=orthogonalEdgeStyle;" edge="1" parent="1" source="9RJf3UfJ7IM10yMbAAB7-56" target="9RJf3UfJ7IM10yMbAAB7-29">
          <mxGeometry width="50" height="50" relative="1" as="geometry">
            <mxPoint x="-340" y="660" as="sourcePoint" />
            <mxPoint x="-490" y="450" as="targetPoint" />
            <Array as="points">
              <mxPoint x="-510" y="370" />
              <mxPoint x="-710" y="370" />
              <mxPoint x="-710" y="530" />
              <mxPoint x="190" y="530" />
              <mxPoint x="190" y="730" />
            </Array>
          </mxGeometry>
        </mxCell>
        <mxCell id="9RJf3UfJ7IM10yMbAAB7-63" value="" style="endArrow=classic;html=1;rounded=0;exitX=0.5;exitY=1;exitDx=0;exitDy=0;entryX=0;entryY=0.5;entryDx=0;entryDy=0;edgeStyle=orthogonalEdgeStyle;" edge="1" parent="1" source="9RJf3UfJ7IM10yMbAAB7-54" target="9RJf3UfJ7IM10yMbAAB7-21">
          <mxGeometry width="50" height="50" relative="1" as="geometry">
            <mxPoint x="-400" y="340" as="sourcePoint" />
            <mxPoint x="350" y="730" as="targetPoint" />
            <Array as="points">
              <mxPoint x="-390" y="370" />
              <mxPoint x="210" y="370" />
              <mxPoint x="210" y="580" />
            </Array>
          </mxGeometry>
        </mxCell>
        <mxCell id="9RJf3UfJ7IM10yMbAAB7-65" value="delivery_status" style="rounded=0;whiteSpace=wrap;html=1;" vertex="1" parent="1">
          <mxGeometry x="-330" y="420" width="140" height="60" as="geometry" />
        </mxCell>
        <mxCell id="9RJf3UfJ7IM10yMbAAB7-66" value="delivery_date" style="rounded=0;whiteSpace=wrap;html=1;" vertex="1" parent="1">
          <mxGeometry x="-450" y="420" width="120" height="60" as="geometry" />
        </mxCell>
        <mxCell id="9RJf3UfJ7IM10yMbAAB7-67" value="delivery_id" style="rounded=0;whiteSpace=wrap;html=1;" vertex="1" parent="1">
          <mxGeometry x="-690" y="420" width="120" height="60" as="geometry" />
        </mxCell>
        <mxCell id="9RJf3UfJ7IM10yMbAAB7-68" value="order_id" style="rounded=0;whiteSpace=wrap;html=1;" vertex="1" parent="1">
          <mxGeometry x="-570" y="420" width="120" height="60" as="geometry" />
        </mxCell>
        <mxCell id="9RJf3UfJ7IM10yMbAAB7-69" value="&lt;b&gt;DELIVERY&lt;/b&gt;" style="text;html=1;align=center;verticalAlign=middle;whiteSpace=wrap;rounded=0;fontSize=14;" vertex="1" parent="1">
          <mxGeometry x="-700" y="380" width="110" height="30" as="geometry" />
        </mxCell>
        <mxCell id="9RJf3UfJ7IM10yMbAAB7-70" value="FK" style="text;html=1;align=center;verticalAlign=middle;whiteSpace=wrap;rounded=0;" vertex="1" parent="1">
          <mxGeometry x="-560" y="480" width="60" height="30" as="geometry" />
        </mxCell>
        <mxCell id="9RJf3UfJ7IM10yMbAAB7-74" value="" style="endArrow=classic;html=1;rounded=0;exitX=0.75;exitY=0;exitDx=0;exitDy=0;entryX=0;entryY=0.25;entryDx=0;entryDy=0;edgeStyle=orthogonalEdgeStyle;" edge="1" parent="1" source="9RJf3UfJ7IM10yMbAAB7-70" target="9RJf3UfJ7IM10yMbAAB7-29">
          <mxGeometry width="50" height="50" relative="1" as="geometry">
            <mxPoint x="-500" y="350" as="sourcePoint" />
            <mxPoint x="250" y="740" as="targetPoint" />
            <Array as="points">
              <mxPoint x="-515" y="520" />
              <mxPoint x="200" y="520" />
              <mxPoint x="200" y="715" />
            </Array>
          </mxGeometry>
        </mxCell>
      </root>
    </mxGraphModel>
  </diagram>
</mxfile>
